<svg xmlns="http://www.w3.org/2000/svg" version="1.1" xmlns:xlink="http://www.w3.org/1999/xlink" xmlns:svgjs="http://svgjs.com/svgjs" width="296" height="41"><svg xmlns="http://www.w3.org/2000/svg" width="296" height="41" viewBox="0 0 296 41" version="1.1"><path d="M 37 3.298 C 37 5.261, 44.394 13, 46.270 13 C 47.137 13, 49.119 14.055, 50.673 15.344 C 52.977 17.254, 54.055 17.531, 56.500 16.843 C 58.983 16.143, 59.814 16.377, 61.323 18.200 C 63.097 20.342, 63.091 20.422, 61.100 21.159 C 59.975 21.575, 57.512 21.718, 55.627 21.477 C 53.257 21.173, 52.029 21.481, 51.648 22.476 C 51.200 23.643, 51.585 23.728, 53.687 22.929 C 55.112 22.387, 56.450 22.117, 56.661 22.328 C 57.146 22.812, 33.980 31.008, 32.139 31.003 C 31.390 31.001, 27.115 28.779, 22.639 26.065 C 13.528 20.540, 9.477 17.640, 12.177 18.577 C 13.491 19.032, 13.735 18.701, 13.302 17.046 C 12.964 15.755, 13.478 14.109, 14.625 12.810 C 16.484 10.704, 16.479 10.692, 14 11.367 C 12.625 11.742, 10.273 12.317, 8.772 12.645 C 7.272 12.973, 5.517 13.877, 4.872 14.655 C 2.684 17.291, 6.021 20.787, 18.584 29.016 L 30.835 37.040 49.167 30.409 C 66.368 24.188, 71 21.938, 71 19.803 C 71 17.995, 67.323 15.299, 61.174 12.598 C 54.323 9.589, 52.586 9.757, 55.589 13.139 C 57.481 15.270, 57.479 15.280, 55.427 14.205 C 54.288 13.608, 52.054 11.180, 50.464 8.810 C 48.874 6.439, 47.445 4.313, 47.287 4.083 C 47.129 3.854, 46.751 3.916, 46.446 4.221 C 46.141 4.525, 46.815 6.288, 47.942 8.137 C 50.546 12.409, 50.571 13.827, 48 11.500 C 46.900 10.505, 46 9.995, 46 10.368 C 46 10.741, 44.848 10.291, 43.440 9.369 C 41.861 8.334, 41.298 7.434, 41.972 7.018 C 42.716 6.558, 42.755 5.573, 42.095 3.922 C 41.562 2.590, 41.098 2.078, 41.063 2.785 C 41.015 3.759, 40.515 3.811, 39 3 C 37.453 2.172, 37 2.240, 37 3.298 M 78.500 2.918 L 72.500 3.500 72.209 10.059 C 71.950 15.883, 72.197 16.920, 74.411 19.309 C 75.782 20.789, 77.826 22, 78.952 22 C 81.728 22, 81.563 23.781, 78.750 24.180 C 75.371 24.660, 75.163 30.525, 78.384 34.500 C 80.715 37.377, 81.139 37.500, 88.754 37.500 C 93.630 37.500, 97.274 37.018, 98.197 36.252 C 99.409 35.245, 100.316 35.311, 102.884 36.592 C 105.448 37.871, 108.152 38.069, 116.784 37.609 C 122.678 37.294, 128.625 37.091, 130 37.157 C 132.277 37.267, 172.104 37.079, 178 36.931 C 179.375 36.896, 183.082 37.178, 186.238 37.557 C 190.782 38.102, 192.513 37.894, 194.555 36.556 C 196.649 35.184, 197.418 35.102, 198.645 36.121 C 199.780 37.062, 206.935 37.360, 227.328 37.314 C 242.273 37.280, 255.850 37.188, 257.500 37.109 C 259.150 37.030, 264.456 37.245, 269.291 37.587 C 275.332 38.014, 279.022 37.819, 281.088 36.963 C 285.126 35.291, 287.383 30.777, 286.511 26.118 C 286.139 24.128, 285.884 20.077, 285.945 17.116 C 286.081 10.486, 284.291 7.489, 278.672 4.938 C 273.205 2.456, 258.560 2.177, 257.243 4.530 C 256.477 5.898, 255.982 5.890, 252.547 4.455 C 249.925 3.360, 245.817 2.870, 239.603 2.912 C 234.596 2.945, 227.897 2.712, 224.716 2.392 C 217.516 1.669, 215.693 2.846, 216.592 7.638 L 217.223 11 207.302 11 C 200.358 11, 196.806 11.422, 195.460 12.406 C 193.808 13.614, 193.154 13.614, 190.818 12.406 C 189.323 11.633, 185.827 11, 183.050 11 C 179.159 11, 178 10.645, 178 9.452 C 178 8.601, 176.809 6.801, 175.354 5.452 C 173.185 3.442, 171.674 3, 166.976 3 C 163.133 3, 160.840 3.488, 160.015 4.482 C 158.929 5.790, 158.539 5.790, 156.670 4.482 C 155.396 3.589, 152.265 3, 148.797 3 C 143.488 3, 142.989 3.195, 142.411 5.500 C 142.066 6.875, 142.080 9.182, 142.442 10.626 C 143.012 12.895, 142.856 13.142, 141.301 12.437 C 138.160 11.013, 128.035 10.726, 126.481 12.016 C 124.357 13.778, 116.128 10.266, 115.363 7.272 C 114.322 3.195, 109.867 1.984, 96.596 2.168 C 89.943 2.261, 81.800 2.598, 78.500 2.918 M 80.699 4.743 L 73.899 5.094 74.199 10.297 C 74.461 14.822, 74.793 15.542, 76.750 15.820 C 78.582 16.080, 79 15.662, 79 13.570 C 79 11.648, 79.516 11, 81.044 11 C 82.941 11, 83.067 11.519, 82.794 18.250 C 82.524 24.903, 82.315 25.526, 80.250 25.820 C 78.621 26.051, 78 26.810, 78 28.570 C 78 30.941, 78.194 31, 86 31 C 93.806 31, 94 30.941, 94 28.570 C 94 26.810, 93.379 26.051, 91.750 25.820 C 89.685 25.526, 89.476 24.903, 89.206 18.250 C 88.963 12.254, 89.179 11, 90.456 11 C 91.333 11, 92 11.864, 92 13 C 92 14.556, 92.667 15, 95 15 C 97.970 15, 98 14.944, 98 9.500 L 98 4 92.750 4.196 C 89.862 4.304, 84.440 4.550, 80.699 4.743 M 100.667 4.667 C 99.358 5.976, 99.986 10, 101.500 10 C 102.716 10, 103 11.611, 103 18.500 C 103 23.500, 102.588 27, 102 27 C 101.450 27, 101 27.900, 101 29 C 101 30.758, 101.667 31, 106.500 31 C 112.244 31, 113.639 29.605, 110.500 27 C 107.563 24.563, 109.200 18.511, 112.620 19.160 C 114.778 19.570, 115.802 24.598, 114.078 26.322 C 113.485 26.915, 113 28.210, 113 29.200 C 113 30.693, 113.852 31, 118 31 C 123.626 31, 123.454 31.393, 121.932 22.012 C 120.610 13.860, 119.015 12, 113.345 12 L 109 12 109 8 C 109 4.029, 108.972 4, 105.167 4 C 103.058 4, 101.033 4.300, 100.667 4.667 M 218.810 4.524 C 218.004 5.329, 219.118 10, 220.117 10 C 220.602 10, 221 13.552, 221 17.893 C 221 23.795, 220.641 25.924, 219.578 26.332 C 218.707 26.666, 218.364 27.677, 218.694 28.939 C 219.162 30.726, 220.016 31, 225.117 31 C 230.726 31, 231 30.883, 231 28.500 C 231 26.944, 230.433 26, 229.500 26 C 228.258 26, 228 24.111, 228 15 L 228 4 223.667 4 C 221.283 4, 219.098 4.236, 218.810 4.524 M 144 7.531 C 144 8.924, 144.675 10.322, 145.500 10.638 C 147.746 11.500, 147.680 26, 145.430 26 C 144.375 26, 143.966 26.737, 144.180 28.250 C 144.468 30.275, 145.134 30.530, 150.833 30.800 C 157.036 31.094, 157.152 31.053, 156.451 28.800 C 156.058 27.535, 155.345 26.350, 154.868 26.167 C 154.391 25.983, 154.014 23.733, 154.032 21.167 C 154.060 17.072, 154.226 16.714, 155.392 18.250 C 157.166 20.586, 158.568 20.455, 160.443 17.777 C 161.937 15.645, 162 15.766, 162 20.777 C 162 23.650, 161.550 26, 161 26 C 160.450 26, 160 27.125, 160 28.500 C 160 30.889, 160.267 31, 166 31 C 171.364 31, 172 30.785, 172 28.969 C 172 27.851, 171.325 26.678, 170.500 26.362 C 169.357 25.923, 169 24.054, 169 18.500 C 169 12.946, 169.357 11.077, 170.500 10.638 C 171.325 10.322, 172 8.924, 172 7.531 C 172 5.179, 171.663 4.999, 167.250 4.991 C 163.127 4.983, 162.157 5.399, 159.899 8.147 L 157.297 11.312 155.433 8.156 C 153.754 5.314, 153.092 5, 148.784 5 C 144.332 5, 144 5.176, 144 7.531 M 233.667 5.667 C 232.358 6.976, 233.033 10.048, 235 11.732 C 237.593 13.952, 237.895 23.400, 235.418 24.786 C 234.394 25.359, 233.953 26.700, 234.168 28.586 C 234.499 31.494, 234.516 31.501, 242.188 31.791 C 249.485 32.067, 250.045 31.931, 253.188 29.123 C 256.392 26.261, 256.500 25.914, 256.500 18.500 C 256.500 11.108, 256.384 10.732, 253.234 7.918 C 250.216 5.221, 249.375 5, 242.151 5 C 237.851 5, 234.033 5.300, 233.667 5.667 M 259 8 C 259 10, 259.500 11, 260.500 11 C 261.690 11, 262 12.444, 262 18 C 262 23.556, 261.690 25, 260.500 25 C 259.514 25, 259 25.986, 259 27.875 C 259 30.295, 259.495 30.849, 262.125 31.375 C 268.724 32.695, 275.629 32.079, 278.365 29.927 C 281.751 27.264, 281.845 23.142, 278.590 20.084 C 276.218 17.856, 276.210 17.790, 278.090 15.910 C 280.679 13.321, 280.491 10.400, 277.545 7.455 C 275.346 5.255, 274.254 5, 267.045 5 L 259 5 259 8 M 25.507 9.989 C 25.157 10.555, 25.558 10.723, 26.448 10.382 C 28.180 9.717, 28.497 9, 27.059 9 C 26.541 9, 25.843 9.445, 25.507 9.989 M 269 13 C 269 14.506, 269.522 15.046, 270.750 14.810 C 271.712 14.624, 272.500 13.810, 272.500 13 C 272.500 12.190, 271.712 11.376, 270.750 11.190 C 269.522 10.954, 269 11.494, 269 13 M 130 12.706 C 123.417 15.113, 121.792 23.511, 126.953 28.455 C 129.157 30.567, 131.187 31.408, 134.953 31.770 L 140 32.254 140 29.191 C 140 26.465, 139.641 26.092, 136.750 25.811 L 133.500 25.495 136.720 23.737 C 143.049 20.283, 143.120 15.283, 136.872 13.105 C 133.463 11.917, 132.338 11.852, 130 12.706 M 180 12.706 C 173.614 15.041, 171.707 23.971, 176.622 28.525 C 181.480 33.028, 189.301 33.196, 189.810 28.809 C 190.085 26.438, 189.745 26.099, 186.810 25.815 L 183.500 25.495 186.720 23.737 C 193.049 20.283, 193.120 15.283, 186.872 13.105 C 183.463 11.917, 182.338 11.852, 180 12.706 M 198.206 13.048 C 195.289 14.218, 192.756 20.127, 193.614 23.758 C 193.971 25.266, 195.152 27.480, 196.238 28.679 C 197.986 30.605, 199.243 30.857, 207.107 30.857 C 215.856 30.857, 216 30.818, 216 28.429 C 216 26.937, 215.422 26, 214.500 26 C 212.760 26, 212.321 18.538, 214 17.500 C 214.550 17.160, 215 15.784, 215 14.441 C 215 12.318, 214.544 12, 211.500 12 C 209.575 12, 208 12.439, 208 12.975 C 208 13.609, 207.102 13.609, 205.435 12.975 C 202.384 11.815, 201.248 11.827, 198.206 13.048 M 243.667 12.667 C 243.300 13.033, 243 15.747, 243 18.698 C 243 22.661, 243.412 24.221, 244.578 24.668 C 246.974 25.588, 249.200 22.659, 249.200 18.587 C 249.200 13.610, 246.071 10.262, 243.667 12.667 M 131.459 18.067 C 131.096 18.653, 131.005 19.339, 131.257 19.590 C 131.954 20.288, 135 18.907, 135 17.893 C 135 16.641, 132.257 16.776, 131.459 18.067 M 181.459 18.067 C 180.286 19.964, 181.996 20.432, 183.738 18.690 C 185.297 17.132, 185.300 17, 183.773 17 C 182.863 17, 181.821 17.480, 181.459 18.067 M 201.075 19.409 C 199.214 21.652, 200.693 25.185, 203.336 24.808 C 205.003 24.571, 205.500 23.814, 205.500 21.514 C 205.500 18.138, 203.084 16.989, 201.075 19.409 M 98.250 21.820 C 95.728 22.178, 95.296 24.171, 97.367 25.890 C 98.405 26.751, 99.027 26.672, 99.950 25.560 C 101.730 23.416, 100.837 21.452, 98.250 21.820 M 269 22.927 C 269 24.358, 269.642 25, 271.073 25 C 273.636 25, 273.345 21.690, 270.739 21.188 C 269.539 20.957, 269 21.496, 269 22.927 M 41.596 25.611 C 41.008 27.143, 41.542 27.234, 44.446 26.098 C 46.321 25.364, 46.314 25.315, 44.261 24.779 C 42.943 24.434, 41.926 24.752, 41.596 25.611 M 28 28 C 32.652 30.547, 35.404 30.544, 31.226 27.996 C 29.425 26.898, 27.175 26.019, 26.226 26.042 C 25.168 26.068, 25.855 26.826, 28 28" stroke="none" fill="#121008" fill-rule="evenodd"></path><path d="M 42.447 4.833 C 42.914 6.303, 42.711 7.007, 41.817 7.022 C 41.093 7.034, 41.618 7.904, 42.985 8.954 C 44.352 10.004, 45.665 10.668, 45.904 10.429 C 46.142 10.191, 47.162 10.741, 48.169 11.653 C 49.176 12.564, 49.984 12.903, 49.965 12.405 C 49.893 10.574, 47.423 7.107, 44.629 4.917 L 41.759 2.665 42.447 4.833 M 80.699 4.743 L 73.899 5.094 74.199 10.297 C 74.461 14.822, 74.793 15.542, 76.750 15.820 C 78.582 16.080, 79 15.662, 79 13.570 C 79 11.648, 79.516 11, 81.044 11 C 82.941 11, 83.067 11.519, 82.794 18.250 C 82.524 24.903, 82.315 25.526, 80.250 25.820 C 78.621 26.051, 78 26.810, 78 28.570 C 78 30.941, 78.194 31, 86 31 C 93.806 31, 94 30.941, 94 28.570 C 94 26.810, 93.379 26.051, 91.750 25.820 C 89.685 25.526, 89.476 24.903, 89.206 18.250 C 88.963 12.254, 89.179 11, 90.456 11 C 91.333 11, 92 11.864, 92 13 C 92 14.556, 92.667 15, 95 15 C 97.970 15, 98 14.944, 98 9.500 L 98 4 92.750 4.196 C 89.862 4.304, 84.440 4.550, 80.699 4.743 M 100.667 4.667 C 99.358 5.976, 99.986 10, 101.500 10 C 102.716 10, 103 11.611, 103 18.500 C 103 23.500, 102.588 27, 102 27 C 101.450 27, 101 27.900, 101 29 C 101 30.758, 101.667 31, 106.500 31 C 112.244 31, 113.639 29.605, 110.500 27 C 107.563 24.563, 109.200 18.511, 112.620 19.160 C 114.778 19.570, 115.802 24.598, 114.078 26.322 C 113.485 26.915, 113 28.210, 113 29.200 C 113 30.693, 113.852 31, 118 31 C 123.626 31, 123.454 31.393, 121.932 22.012 C 120.610 13.860, 119.015 12, 113.345 12 L 109 12 109 8 C 109 4.029, 108.972 4, 105.167 4 C 103.058 4, 101.033 4.300, 100.667 4.667 M 218.810 4.524 C 218.004 5.329, 219.118 10, 220.117 10 C 220.602 10, 221 13.552, 221 17.893 C 221 23.795, 220.641 25.924, 219.578 26.332 C 218.707 26.666, 218.364 27.677, 218.694 28.939 C 219.162 30.726, 220.016 31, 225.117 31 C 230.726 31, 231 30.883, 231 28.500 C 231 26.944, 230.433 26, 229.500 26 C 228.258 26, 228 24.111, 228 15 L 228 4 223.667 4 C 221.283 4, 219.098 4.236, 218.810 4.524 M 31 6 C 30.175 6.533, 28.067 6.976, 26.315 6.985 C 21.855 7.006, 18.629 8.416, 15.550 11.688 C 13.801 13.548, 13.047 15.282, 13.325 16.808 C 13.649 18.592, 13.376 18.989, 12.122 18.556 C 9.498 17.649, 13.653 20.616, 22.639 26.065 C 27.115 28.779, 31.390 31.001, 32.139 31.003 C 33.980 31.008, 57.146 22.812, 56.661 22.328 C 56.450 22.117, 55.112 22.387, 53.687 22.929 C 51.585 23.728, 51.200 23.643, 51.648 22.476 C 52.029 21.481, 53.257 21.173, 55.627 21.477 C 57.512 21.718, 59.975 21.575, 61.100 21.159 C 63.091 20.422, 63.097 20.342, 61.323 18.200 C 59.814 16.377, 58.983 16.143, 56.500 16.843 C 54.055 17.531, 52.977 17.254, 50.673 15.344 C 49.119 14.055, 47.137 13, 46.270 13 C 45.402 13, 43.031 11.200, 41 9 C 37.267 4.957, 34.089 4.003, 31 6 M 48.467 6 C 50.700 9.758, 54.250 13.882, 55.746 14.456 C 57.229 15.025, 57.224 14.905, 55.694 13.214 C 54.762 12.185, 53.975 10.928, 53.945 10.421 C 53.914 9.915, 52.469 8.375, 50.732 7 C 48.996 5.625, 47.977 5.175, 48.467 6 M 144 7.531 C 144 8.924, 144.675 10.322, 145.500 10.638 C 147.746 11.500, 147.680 26, 145.430 26 C 144.375 26, 143.966 26.737, 144.180 28.250 C 144.468 30.275, 145.134 30.530, 150.833 30.800 C 157.036 31.094, 157.152 31.053, 156.451 28.800 C 156.058 27.535, 155.345 26.350, 154.868 26.167 C 154.391 25.983, 154.014 23.733, 154.032 21.167 C 154.060 17.072, 154.226 16.714, 155.392 18.250 C 157.166 20.586, 158.568 20.455, 160.443 17.777 C 161.937 15.645, 162 15.766, 162 20.777 C 162 23.650, 161.550 26, 161 26 C 160.450 26, 160 27.125, 160 28.500 C 160 30.889, 160.267 31, 166 31 C 171.364 31, 172 30.785, 172 28.969 C 172 27.851, 171.325 26.678, 170.500 26.362 C 169.357 25.923, 169 24.054, 169 18.500 C 169 12.946, 169.357 11.077, 170.500 10.638 C 171.325 10.322, 172 8.924, 172 7.531 C 172 5.179, 171.663 4.999, 167.250 4.991 C 163.127 4.983, 162.157 5.399, 159.899 8.147 L 157.297 11.312 155.433 8.156 C 153.754 5.314, 153.092 5, 148.784 5 C 144.332 5, 144 5.176, 144 7.531 M 233.667 5.667 C 232.358 6.976, 233.033 10.048, 235 11.732 C 237.593 13.952, 237.895 23.400, 235.418 24.786 C 234.394 25.359, 233.953 26.700, 234.168 28.586 C 234.499 31.494, 234.516 31.501, 242.188 31.791 C 249.485 32.067, 250.045 31.931, 253.188 29.123 C 256.392 26.261, 256.500 25.914, 256.500 18.500 C 256.500 11.108, 256.384 10.732, 253.234 7.918 C 250.216 5.221, 249.375 5, 242.151 5 C 237.851 5, 234.033 5.300, 233.667 5.667 M 259 8 C 259 10, 259.500 11, 260.500 11 C 261.690 11, 262 12.444, 262 18 C 262 23.556, 261.690 25, 260.500 25 C 259.514 25, 259 25.986, 259 27.875 C 259 30.295, 259.495 30.849, 262.125 31.375 C 268.724 32.695, 275.629 32.079, 278.365 29.927 C 281.751 27.264, 281.845 23.142, 278.590 20.084 C 276.218 17.856, 276.210 17.790, 278.090 15.910 C 280.679 13.321, 280.491 10.400, 277.545 7.455 C 275.346 5.255, 274.254 5, 267.045 5 L 259 5 259 8 M 25.507 9.989 C 25.157 10.555, 25.558 10.723, 26.448 10.382 C 28.180 9.717, 28.497 9, 27.059 9 C 26.541 9, 25.843 9.445, 25.507 9.989 M 269 13 C 269 14.506, 269.522 15.046, 270.750 14.810 C 271.712 14.624, 272.500 13.810, 272.500 13 C 272.500 12.190, 271.712 11.376, 270.750 11.190 C 269.522 10.954, 269 11.494, 269 13 M 130 12.706 C 123.417 15.113, 121.792 23.511, 126.953 28.455 C 129.157 30.567, 131.187 31.408, 134.953 31.770 L 140 32.254 140 29.191 C 140 26.465, 139.641 26.092, 136.750 25.811 L 133.500 25.495 136.720 23.737 C 143.049 20.283, 143.120 15.283, 136.872 13.105 C 133.463 11.917, 132.338 11.852, 130 12.706 M 180 12.706 C 173.614 15.041, 171.707 23.971, 176.622 28.525 C 181.480 33.028, 189.301 33.196, 189.810 28.809 C 190.085 26.438, 189.745 26.099, 186.810 25.815 L 183.500 25.495 186.720 23.737 C 193.049 20.283, 193.120 15.283, 186.872 13.105 C 183.463 11.917, 182.338 11.852, 180 12.706 M 198.206 13.048 C 195.289 14.218, 192.756 20.127, 193.614 23.758 C 193.971 25.266, 195.152 27.480, 196.238 28.679 C 197.986 30.605, 199.243 30.857, 207.107 30.857 C 215.856 30.857, 216 30.818, 216 28.429 C 216 26.937, 215.422 26, 214.500 26 C 212.760 26, 212.321 18.538, 214 17.500 C 214.550 17.160, 215 15.784, 215 14.441 C 215 12.318, 214.544 12, 211.500 12 C 209.575 12, 208 12.439, 208 12.975 C 208 13.609, 207.102 13.609, 205.435 12.975 C 202.384 11.815, 201.248 11.827, 198.206 13.048 M 243.667 12.667 C 243.300 13.033, 243 15.747, 243 18.698 C 243 22.661, 243.412 24.221, 244.578 24.668 C 246.974 25.588, 249.200 22.659, 249.200 18.587 C 249.200 13.610, 246.071 10.262, 243.667 12.667 M 131.459 18.067 C 131.096 18.653, 131.005 19.339, 131.257 19.590 C 131.954 20.288, 135 18.907, 135 17.893 C 135 16.641, 132.257 16.776, 131.459 18.067 M 181.459 18.067 C 180.286 19.964, 181.996 20.432, 183.738 18.690 C 185.297 17.132, 185.300 17, 183.773 17 C 182.863 17, 181.821 17.480, 181.459 18.067 M 201.075 19.409 C 199.214 21.652, 200.693 25.185, 203.336 24.808 C 205.003 24.571, 205.500 23.814, 205.500 21.514 C 205.500 18.138, 203.084 16.989, 201.075 19.409 M 269 22.927 C 269 24.358, 269.642 25, 271.073 25 C 273.636 25, 273.345 21.690, 270.739 21.188 C 269.539 20.957, 269 21.496, 269 22.927 M 41.596 25.611 C 41.008 27.143, 41.542 27.234, 44.446 26.098 C 46.321 25.364, 46.314 25.315, 44.261 24.779 C 42.943 24.434, 41.926 24.752, 41.596 25.611 M 28 28 C 32.652 30.547, 35.404 30.544, 31.226 27.996 C 29.425 26.898, 27.175 26.019, 26.226 26.042 C 25.168 26.068, 25.855 26.826, 28 28" stroke="none" fill="#e4973a" fill-rule="evenodd"></path></svg><style>@media (prefers-color-scheme: light) { :root { filter: none; } }
</style></svg>